<svg width="113" height="112" viewBox="0 0 113 112" fill="none" xmlns="http://www.w3.org/2000/svg">
<g filter="url(#filter0_d_2181_11271)">
<path d="M24.5 50C24.5 32.3269 38.8269 18 56.5 18C74.1731 18 88.5 32.3269 88.5 50C88.5 67.6731 74.1731 82 56.5 82C38.8269 82 24.5 67.6731 24.5 50Z" fill="url(#paint0_linear_2181_11271)"/>
<path d="M58.3333 39.3333C58.3333 38.597 57.7364 38 57 38C56.2636 38 55.6667 38.597 55.6667 39.3333V48.6667H46.3333C45.597 48.6667 45 49.2636 45 50C45 50.7364 45.597 51.3333 46.3333 51.3333H55.6667V60.6667C55.6667 61.403 56.2636 62 57 62C57.7364 62 58.3333 61.403 58.3333 60.6667V51.3333H67.6667C68.403 51.3333 69 50.7364 69 50C69 49.2636 68.403 48.6667 67.6667 48.6667H58.3333V39.3333Z" fill="white"/>
</g>
<defs>
<filter id="filter0_d_2181_11271" x="0.5" y="0" width="112" height="112" filterUnits="userSpaceOnUse" color-interpolation-filters="sRGB">
<feFlood flood-opacity="0" result="BackgroundImageFix"/>
<feColorMatrix in="SourceAlpha" type="matrix" values="0 0 0 0 0 0 0 0 0 0 0 0 0 0 0 0 0 0 127 0" result="hardAlpha"/>
<feOffset dy="6"/>
<feGaussianBlur stdDeviation="12"/>
<feColorMatrix type="matrix" values="0 0 0 0 0.0705882 0 0 0 0 0.384314 0 0 0 0 0.984314 0 0 0 0.32 0"/>
<feBlend mode="normal" in2="BackgroundImageFix" result="effect1_dropShadow_2181_11271"/>
<feBlend mode="normal" in="SourceGraphic" in2="effect1_dropShadow_2181_11271" result="shape"/>
</filter>
<linearGradient id="paint0_linear_2181_11271" x1="88.5" y1="18" x2="27.2918" y2="84.5671" gradientUnits="userSpaceOnUse">
<stop stop-color="#2FDAFF"/>
<stop offset="1" stop-color="#0E33F3"/>
</linearGradient>
</defs>
</svg>
