<svg width="25" height="24" viewBox="0 0 25 24" fill="none" xmlns="http://www.w3.org/2000/svg">
<path d="M13.4089 1.18293C13.0949 0.939023 12.6551 0.939023 12.3411 1.18293L3.2107 8.27504C2.99889 8.43956 2.875 8.69254 2.875 8.96053V20.1053C2.875 20.873 3.18038 21.6093 3.72397 22.1522C4.26755 22.695 5.00481 23 5.77355 23H8.38225C8.94254 23 9.39674 22.5464 9.39674 21.9868V13.7368C9.39674 13.2572 9.78606 12.8684 10.2663 12.8684H15.4837C15.9639 12.8684 16.3533 13.2572 16.3533 13.7368V21.9868C16.3533 22.5464 16.8075 23 17.3678 23H19.9764C20.7452 23 21.4825 22.695 22.026 22.1522C22.5696 21.6093 22.875 20.873 22.875 20.1053V8.96053C22.875 8.69254 22.7511 8.43956 22.5393 8.27504L13.4089 1.18293Z" fill="#0E33F3"/>
</svg>
